<svg width="72" height="72" viewBox="0 0 72 72" fill="none" xmlns="http://www.w3.org/2000/svg">
  <path fill-rule="evenodd" clip-rule="evenodd"
    d="M18.6459 19.8457C18.725 19.0811 19.3693 18.5 20.1379 18.5H51.8621C52.6307 18.5 53.275 19.0811 53.3541 19.8457L57.492 59.8457C57.5357 60.2681 57.3983 60.6892 57.1139 61.0046C56.8295 61.32 56.4247 61.5 56 61.5H16C15.5753 61.5 15.1705 61.32 14.8861 61.0046C14.6017 60.6892 14.4643 60.2681 14.508 59.8457L18.6459 19.8457ZM21.4908 21.5L17.6632 58.5H54.3368L50.5092 21.5H21.4908Z"
    [attr.fill]="fillColor" />
  <path fill-rule="evenodd" clip-rule="evenodd"
    d="M36 12.5C32.4101 12.5 29.5 15.4101 29.5 19V25C29.5 25.8284 28.8284 26.5 28 26.5C27.1716 26.5 26.5 25.8284 26.5 25V19C26.5 13.7533 30.7533 9.5 36 9.5C41.2467 9.5 45.5 13.7533 45.5 19V25C45.5 25.8284 44.8284 26.5 44 26.5C43.1716 26.5 42.5 25.8284 42.5 25V19C42.5 15.4101 39.5899 12.5 36 12.5Z"
    [attr.fill]="fillColor" />
</svg>