<svg [attr.width]="height" [attr.height]="height" viewBox="0 0 32 32" fill="none" xmlns="http://www.w3.org/2000/svg">
  <path
    d="M20.9993 20C20.447 20 19.9993 20.4477 19.9993 21C19.9993 21.5523 20.447 22 20.9993 22H24.9993C25.5516 22 25.9993 21.5523 25.9993 21C25.9993 20.4477 25.5516 20 24.9993 20H20.9993Z"
    [attr.fill]="fillColor" />
  <path
    d="M13.9993 21C13.9993 20.4477 14.447 20 14.9993 20H16.9993C17.5516 20 17.9993 20.4477 17.9993 21C17.9993 21.5523 17.5516 22 16.9993 22H14.9993C14.447 22 13.9993 21.5523 13.9993 21Z"
    [attr.fill]="fillColor" />
  <path fill-rule="evenodd" clip-rule="evenodd"
    d="M4 6C2.89543 6 2 6.89543 2 8V12.0679C1.99951 12.0807 1.99927 12.0936 1.99927 12.1065C1.99927 12.1194 1.99951 12.1323 2 12.1451V24C2 25.1046 2.89543 26 4 26H28C29.1046 26 30 25.1046 30 24V8C30 6.89543 29.1046 6 28 6H4ZM4 13.1065V24H28V13.1065H4ZM28 11.1065V8H4V11.1065H28Z"
    [attr.fill]="fillColor" />
</svg>