<svg width="24" height="24" viewBox="0 0 24 24" fill="none" xmlns="http://www.w3.org/2000/svg">
  <path
    d="M8.70711 5.29289C8.31658 4.90237 7.68342 4.90237 7.29289 5.29289L1.29289 11.2929L1.20971 11.3871C0.90468 11.7794 0.932409 12.3466 1.29289 12.7071L7.29289 18.7071L7.3871 18.7903C7.77939 19.0953 8.34662 19.0676 8.70711 18.7071L8.7903 18.6129C9.09532 18.2206 9.06759 17.6534 8.70711 17.2929L4.41485 13H21C21.5523 13 22 12.5523 22 12C22 11.4477 21.5523 11 21 11H4.41485L8.70711 6.70711L8.7903 6.6129C9.09532 6.22061 9.06759 5.65338 8.70711 5.29289Z"
    [attr.fill]="fillColor" />
</svg>