<svg width="24" height="24" viewBox="0 0 24 24" fill="none" xmlns="http://www.w3.org/2000/svg">
  <path
    d="M5.63604 18.364C4.83954 17.5675 5.36783 15.8952 4.96241 14.9154C4.54215 13.8997 3 13.0822 3 12C3 10.9178 4.54216 10.1003 4.96242 9.08459C5.36783 8.10475 4.83954 6.43254 5.63604 5.63604C6.43254 4.83954 8.10476 5.36783 9.0846 4.96241C10.1003 4.54215 10.9178 3 12 3C13.0822 3 13.8997 4.54216 14.9154 4.96242C15.8952 5.36783 17.5675 4.83954 18.364 5.63604C19.1605 6.43254 18.6322 8.10476 19.0376 9.0846C19.4579 10.1003 21 10.9178 21 12C21 13.0822 19.4578 13.8997 19.0376 14.9154C18.6322 15.8952 19.1605 17.5675 18.364 18.364C17.5675 19.1605 15.8952 18.6322 14.9154 19.0376C13.8997 19.4579 13.0822 21 12 21C10.9178 21 10.1003 19.4578 9.08459 19.0376C8.10475 18.6322 6.43254 19.1605 5.63604 18.364Z"
    [attr.stroke]="fillColor" stroke-width="1.5" stroke-linecap="round" stroke-linejoin="round" />
  <path d="M15.5997 8.3999L8.39972 15.5998" [attr.stroke]="fillColor" stroke-width="1.5" stroke-linecap="round"
    stroke-linejoin="round" />
  <path
    d="M9.39999 10.8C10.1732 10.8 10.8 10.1732 10.8 9.4C10.8 8.6268 10.1732 8 9.39999 8C8.6268 8 8 8.6268 8 9.4C8 10.1732 8.6268 10.8 9.39999 10.8Z"
    [attr.stroke]="fillColor" stroke-width="1.5" stroke-linecap="round" stroke-linejoin="round" />
  <path
    d="M14.5998 15.9999C15.3729 15.9999 15.9997 15.3731 15.9997 14.5999C15.9997 13.8268 15.3729 13.2 14.5998 13.2C13.8266 13.2 13.1998 13.8268 13.1998 14.5999C13.1998 15.3731 13.8266 15.9999 14.5998 15.9999Z"
    [attr.stroke]="fillColor" stroke-width="1.5" stroke-linecap="round" stroke-linejoin="round" />
</svg>