<svg [attr.width]="width" height="auto" viewBox="0 0 14 20" fill="none" xmlns="http://www.w3.org/2000/svg">
  <path fill-rule="evenodd" clip-rule="evenodd"
    d="M3.83905 15.2881C4.52828 16.27 5.33583 17.4204 6.2806 18.7901C6.6282 19.2922 7.37177 19.2922 7.7194 18.7901C8.66417 17.4204 9.47173 16.27 10.1609 15.2881C13.3362 10.7647 14 9.81898 14 7.5C14 3.63399 10.866 0.5 7 0.5C3.13399 0.5 0 3.63399 0 7.5C0 9.81898 0.663823 10.7647 3.83905 15.2881ZM9.91667 7.5C9.91667 9.11084 8.61084 10.4167 7 10.4167C5.38916 10.4167 4.08333 9.11084 4.08333 7.5C4.08333 5.88916 5.38916 4.58333 7 4.58333C8.61084 4.58333 9.91667 5.88916 9.91667 7.5Z"
    [attr.fill]="fillColor" />
</svg>