<svg width="22" height="19" viewBox="0 0 22 19" fill="none" xmlns="http://www.w3.org/2000/svg">
  <path fill-rule="evenodd" clip-rule="evenodd"
    d="M12.6782 18.4483C12.4934 18.4483 12.3406 18.3104 12.3338 18.1383C12.3269 17.9311 12.4751 17.7932 12.6658 17.7587C14.7789 17.6897 16.7351 16.7932 18.1744 15.2415C19.6138 13.6897 20.3634 11.6897 20.2844 9.58663C20.2072 7.44835 19.3113 5.51731 17.762 4.06938C16.2131 2.62111 14.1982 1.86214 12.0831 1.96559C9.88341 2.03456 7.78065 3.06904 6.3141 4.79352C5.00525 6.34232 4.33855 8.26597 4.39672 10.3052L6.89758 7.44836C7.02309 7.31043 7.24068 7.31043 7.38413 7.44836C7.52758 7.55181 7.54206 7.7587 7.41654 7.93112L4.43183 11.3128C4.39953 11.3807 4.34399 11.4394 4.27383 11.4776C4.25581 11.4882 4.23699 11.4964 4.21759 11.5025C4.19928 11.509 4.18025 11.514 4.16065 11.5177C4.00576 11.546 3.8592 11.456 3.80048 11.306L1.21792 7.44836C1.1124 7.27629 1.15516 7.06905 1.31344 6.9656C1.47171 6.8625 1.68585 6.89664 1.79171 7.06905L3.70437 9.92084C3.73283 7.86657 4.45266 5.91659 5.78892 4.3449C7.3803 2.48283 9.66513 1.3449 12.0575 1.27594C14.3548 1.17283 16.5472 2.00042 18.2317 3.55214C19.9155 5.138 20.8896 7.24145 20.9738 9.5518C21.0593 11.828 20.2448 14.0346 18.6796 15.7242C17.1151 17.4139 14.9882 18.3797 12.691 18.4483H12.6782ZM12.0446 10.6552H16.7225C16.9128 10.6552 17.0673 10.5173 17.0673 10.3104C17.0673 10.138 16.9128 9.96593 16.7225 9.96593H12.7342V5.51731C12.7342 5.31076 12.5801 5.17249 12.3894 5.17249C12.199 5.17249 12.0446 5.31076 12.0446 5.51731V10.6552Z"
    [attr.fill]="fillColor" />
  <path
    d="M12.3338 18.1383L11.834 18.155L11.8342 18.1584L12.3338 18.1383ZM12.6658 17.7587L12.6495 17.259L12.6129 17.2602L12.5768 17.2667L12.6658 17.7587ZM18.1744 15.2415L18.541 15.5815V15.5815L18.1744 15.2415ZM20.2844 9.58663L19.7848 9.60468L19.7848 9.60539L20.2844 9.58663ZM17.762 4.06938L17.4205 4.43461L17.4206 4.43469L17.762 4.06938ZM12.0831 1.96559L12.0987 2.46542L12.1075 2.46499L12.0831 1.96559ZM6.3141 4.79352L5.93321 4.4696L5.9322 4.47079L6.3141 4.79352ZM4.39672 10.3052L3.89692 10.3195L3.93327 11.5938L4.77294 10.6346L4.39672 10.3052ZM6.89758 7.44836L6.52771 7.11178L6.52136 7.11902L6.89758 7.44836ZM7.38413 7.44836L7.03757 7.80878L7.06303 7.83325L7.09167 7.8539L7.38413 7.44836ZM7.41654 7.93112L7.79142 8.26198L7.80695 8.24438L7.82077 8.2254L7.41654 7.93112ZM4.43183 11.3128L4.05695 10.982L4.0105 11.0346L3.98034 11.098L4.43183 11.3128ZM4.27383 11.4776L4.0349 11.0384L4.02776 11.0423L4.02075 11.0464L4.27383 11.4776ZM4.21759 11.5025L4.0662 11.026L4.05922 11.0282L4.0523 11.0307L4.21759 11.5025ZM4.16065 11.5177L4.25065 12.0095L4.25127 12.0094L4.16065 11.5177ZM3.80048 11.306L4.26608 11.1237L4.24624 11.073L4.21597 11.0278L3.80048 11.306ZM1.21792 7.44836L0.791682 7.70974L0.796891 7.71823L0.802434 7.72651L1.21792 7.44836ZM1.31344 6.9656L1.04053 6.54665L1.03989 6.54707L1.31344 6.9656ZM1.79171 7.06905L1.36562 7.33067L1.37087 7.33922L1.37646 7.34755L1.79171 7.06905ZM3.70437 9.92084L3.28912 10.1993L4.18211 11.5308L4.20432 9.92776L3.70437 9.92084ZM5.78892 4.3449L5.40882 4.02006L5.40799 4.02103L5.78892 4.3449ZM12.0575 1.27594L12.072 1.77579L12.08 1.77543L12.0575 1.27594ZM18.2317 3.55214L18.5745 3.18814L18.5704 3.1844L18.2317 3.55214ZM20.9738 9.5518L20.4741 9.56999L20.4741 9.57057L20.9738 9.5518ZM18.6796 15.7242L18.3128 15.3844L18.3127 15.3845L18.6796 15.7242ZM12.691 18.4483V18.9483H12.6985L12.7059 18.9481L12.691 18.4483ZM12.0446 10.6552H11.5446V11.1552H12.0446V10.6552ZM12.7342 9.96593H12.2342V10.4659H12.7342V9.96593ZM11.8342 18.1584C11.853 18.6277 12.2552 18.9483 12.6782 18.9483V17.9483C12.7316 17.9483 12.8283 17.9931 12.8334 18.1183L11.8342 18.1584ZM12.5768 17.2667C12.204 17.3341 11.8169 17.6417 11.834 18.155L12.8335 18.1217C12.8338 18.1323 12.8323 18.1501 12.8243 18.1713C12.8165 18.1924 12.8048 18.2103 12.7922 18.2239C12.7679 18.25 12.7494 18.2517 12.7548 18.2507L12.5768 17.2667ZM17.8079 14.9014C16.4588 16.3559 14.6284 17.1944 12.6495 17.259L12.6821 18.2584C14.9294 18.1851 17.0115 17.2305 18.541 15.5815L17.8079 14.9014ZM19.7848 9.60539C19.8587 11.5743 19.1582 13.4457 17.8079 14.9014L18.541 15.5815C20.0693 13.9338 20.8681 11.8052 20.7841 9.56786L19.7848 9.60539ZM17.4206 4.43469C18.8747 5.79363 19.7124 7.60039 19.7848 9.60468L20.7841 9.56857C20.702 7.29631 19.748 5.241 18.1034 3.70408L17.4206 4.43469ZM12.1075 2.46499C14.0842 2.36832 15.9679 3.07635 17.4205 4.43461L18.1035 3.70416C16.4583 2.16586 14.3123 1.35597 12.0586 1.46619L12.1075 2.46499ZM6.69499 5.11744C8.07363 3.49632 10.0456 2.52972 12.0987 2.46535L12.0674 1.46584C9.72124 1.5394 7.48766 2.64175 5.93321 4.4696L6.69499 5.11744ZM4.89652 10.291C4.84182 8.37325 5.46753 6.56993 6.69599 5.11625L5.9322 4.47079C4.54297 6.11471 3.83529 8.1587 3.89692 10.3195L4.89652 10.291ZM6.52136 7.11902L4.0205 9.97589L4.77294 10.6346L7.27379 7.77769L6.52136 7.11902ZM7.73068 7.08794C7.40765 6.77734 6.86387 6.7425 6.52777 7.11184L7.26738 7.78488C7.22962 7.82637 7.17811 7.84491 7.13413 7.84491C7.09133 7.84491 7.05783 7.82826 7.03757 7.80878L7.73068 7.08794ZM7.82077 8.2254C8.05682 7.90116 8.11085 7.35598 7.67659 7.04281L7.09167 7.8539C7.03312 7.81169 7.00575 7.74775 7.00235 7.6978C6.9993 7.65289 7.01472 7.63354 7.01231 7.63684L7.82077 8.2254ZM4.8067 11.6437L7.79142 8.26198L7.04167 7.60025L4.05695 10.982L4.8067 11.6437ZM4.51277 11.9168C4.67299 11.8296 4.80434 11.6937 4.88332 11.5277L3.98034 11.098C3.99473 11.0678 4.015 11.0492 4.0349 11.0384L4.51277 11.9168ZM4.36898 11.9791C4.42186 11.9623 4.47503 11.9393 4.52691 11.9088L4.02075 11.0464C4.03659 11.0371 4.05211 11.0305 4.0662 11.026L4.36898 11.9791ZM4.25127 12.0094C4.29653 12.001 4.34051 11.9893 4.38288 11.9744L4.0523 11.0307C4.05804 11.0286 4.06398 11.0271 4.07003 11.0259L4.25127 12.0094ZM3.33488 11.4882C3.47165 11.8376 3.83639 12.0853 4.25065 12.0095L4.07065 11.0258C4.11666 11.0174 4.16366 11.0273 4.20029 11.0491C4.23552 11.0701 4.25626 11.0986 4.26608 11.1237L3.33488 11.4882ZM0.802434 7.72651L3.38499 11.5841L4.21597 11.0278L1.63341 7.1702L0.802434 7.72651ZM1.03989 6.54707C0.63738 6.81014 0.556109 7.32559 0.791682 7.70974L1.64416 7.18698C1.65488 7.20446 1.66541 7.23756 1.65701 7.27949C1.64845 7.32222 1.62226 7.36108 1.58699 7.38413L1.03989 6.54707ZM2.21781 6.80743C1.95225 6.37493 1.41411 6.30329 1.04053 6.54665L1.58635 7.38455C1.55765 7.40325 1.51809 7.41302 1.47478 7.40442C1.42762 7.39505 1.38713 7.3657 1.36562 7.33067L2.21781 6.80743ZM4.11962 9.64233L2.20697 6.79054L1.37646 7.34755L3.28912 10.1993L4.11962 9.64233ZM5.40799 4.02103C3.99524 5.68268 3.23446 7.74518 3.20442 9.91391L4.20432 9.92776C4.2312 7.98797 4.91007 6.1505 6.16985 4.66877L5.40799 4.02103ZM12.0431 0.776144C9.50176 0.849403 7.08672 2.05676 5.40882 4.02006L6.16902 4.66975C7.67389 2.90891 9.8285 1.8404 12.072 1.77573L12.0431 0.776144ZM18.5704 3.1844C16.7909 1.54506 14.4694 0.667184 12.0351 0.776439L12.08 1.77543C14.2401 1.67848 16.3035 2.45577 17.8929 3.91989L18.5704 3.1844ZM21.4734 9.5336C21.3844 7.0889 20.3518 4.86213 18.5745 3.18816L17.8889 3.91612C19.4791 5.41388 20.3948 7.39401 20.4741 9.56999L21.4734 9.5336ZM19.0464 16.064C20.7014 14.2774 21.5639 11.942 21.4734 9.53303L20.4741 9.57057C20.5546 11.7141 19.7882 13.7917 18.3128 15.3844L19.0464 16.064ZM12.7059 18.9481C15.1371 18.8755 17.3909 17.852 19.0465 16.0639L18.3127 15.3845C16.8394 16.9757 14.8393 17.884 12.6761 17.9486L12.7059 18.9481ZM12.6782 18.9483H12.691V17.9483H12.6782V18.9483ZM16.7225 10.1552H12.0446V11.1552H16.7225V10.1552ZM16.5673 10.3104C16.5673 10.2838 16.5799 10.2385 16.6187 10.201C16.6551 10.1658 16.6958 10.1552 16.7225 10.1552V11.1552C17.173 11.1552 17.5673 10.8092 17.5673 10.3104H16.5673ZM16.7225 10.4659C16.6632 10.4659 16.6246 10.4394 16.6068 10.421C16.5913 10.4051 16.5673 10.3705 16.5673 10.3104H17.5673C17.5673 9.87799 17.2048 9.46593 16.7225 9.46593V10.4659ZM12.7342 10.4659H16.7225V9.46593H12.7342V10.4659ZM12.2342 5.51731V9.96593H13.2342V5.51731H12.2342ZM12.3894 5.67249C12.3627 5.67249 12.3219 5.66186 12.2855 5.62666C12.2467 5.58912 12.2342 5.54398 12.2342 5.51731H13.2342C13.2342 5.01952 12.8409 4.67249 12.3894 4.67249V5.67249ZM12.5446 5.51731C12.5446 5.54431 12.5319 5.58942 12.4933 5.62678C12.4571 5.66176 12.4164 5.67249 12.3894 5.67249V4.67249C11.9386 4.67249 11.5446 5.0192 11.5446 5.51731H12.5446ZM12.5446 10.6552V5.51731H11.5446V10.6552H12.5446Z"
    [attr.fill]="fillColor" />
</svg>