<svg [attr.width]="width" [attr.height]="height" viewBox="0 0 72 72" fill="none" xmlns="http://www.w3.org/2000/svg">
  <path fill-rule="evenodd" clip-rule="evenodd"
    d="M15.0001 49.5C15.8285 49.5 16.5001 50.1716 16.5001 51C16.5001 53.4853 18.5148 55.5 21.0001 55.5C23.4854 55.5 25.5001 53.4853 25.5001 51C25.5001 50.1716 26.1717 49.5 27.0001 49.5C27.8285 49.5 28.5001 50.1716 28.5001 51C28.5001 55.1421 25.1422 58.5 21.0001 58.5C16.8579 58.5 13.5001 55.1421 13.5001 51C13.5001 50.1716 14.1716 49.5 15.0001 49.5Z"
    [attr.fill]="fillColor" />
  <path fill-rule="evenodd" clip-rule="evenodd"
    d="M47.5 27C47.5 26.1716 48.1716 25.5 49 25.5C50.3807 25.5 51.5 24.3807 51.5 23C51.5 21.6193 50.3807 20.5 49 20.5C48.1716 20.5 47.5 19.8284 47.5 19C47.5 18.1716 48.1716 17.5 49 17.5C52.0376 17.5 54.5 19.9624 54.5 23C54.5 26.0376 52.0376 28.5 49 28.5C48.1716 28.5 47.5 27.8284 47.5 27Z"
    [attr.fill]="fillColor" />
  <path fill-rule="evenodd" clip-rule="evenodd"
    d="M11.5 24C11.5 22.6193 12.6193 21.5 14 21.5H34.0001C36.4853 21.5 38.5 23.5147 38.5 26V30C38.5 31.3807 37.3808 32.5 36 32.5H14C12.6193 32.5 11.5 31.3807 11.5 30V24ZM14.5 24.5V29.5H35.5V26C35.5 25.1716 34.8285 24.5 34.0001 24.5H14.5Z"
    [attr.fill]="fillColor" />
  <path fill-rule="evenodd" clip-rule="evenodd"
    d="M38.5002 50.8416C38.5002 41.2448 30.5582 33.5 21.0001 33.5C11.4421 33.5 3.50009 41.2448 3.50009 50.8416C3.50009 51.7575 4.24259 52.5 5.1585 52.5H36.8417C37.7576 52.5 38.5002 51.7575 38.5002 50.8416ZM35.4366 49.5H6.5636C7.25562 42.2241 13.5145 36.5 21.0001 36.5C28.4857 36.5 34.7446 42.2241 35.4366 49.5Z"
    [attr.fill]="fillColor" />
  <path
    d="M15 31V35.7505C15.6515 35.55 17.3191 35.3875 18 35.2657V33H30V39.0309C30.7203 39.6387 32.3896 40.3049 33 41.0221V31H15Z"
    [attr.fill]="fillColor" />
  <path fill-rule="evenodd" clip-rule="evenodd"
    d="M61.0001 46.5C58.5148 46.5 56.5001 48.5147 56.5001 51C56.5001 53.4853 58.5148 55.5 61.0001 55.5C63.4854 55.5 65.5001 53.4853 65.5001 51C65.5001 48.5147 63.4854 46.5 61.0001 46.5ZM53.5001 51C53.5001 46.8579 56.8579 43.5 61.0001 43.5C65.1422 43.5 68.5001 46.8579 68.5001 51C68.5001 55.1422 65.1422 58.5 61.0001 58.5C56.8579 58.5 53.5001 55.1422 53.5001 51Z"
    [attr.fill]="fillColor" />
  <path fill-rule="evenodd" clip-rule="evenodd"
    d="M37.5004 15C37.5004 14.1716 38.1719 13.5 39.0004 13.5H46.0004C47.3811 13.5 48.5004 14.6193 48.5004 16V39C48.5004 39.8285 47.8288 40.5 47.0004 40.5C46.172 40.5 45.5004 39.8285 45.5004 39V16.5H39.0004C38.1719 16.5 37.5004 15.8284 37.5004 15Z"
    [attr.fill]="fillColor" />
  <path fill-rule="evenodd" clip-rule="evenodd"
    d="M48.5003 32.5761V39C48.5003 39.8285 47.8287 40.5 47.0003 40.5H35.0235C36.9185 43.0112 38.1496 46.0491 38.436 49.3542L53.6524 49.4881C54.2479 46.5787 56.5283 44.2831 59.4293 43.6648C58.8119 37.8844 54.236 33.2205 48.5003 32.5761ZM45.5003 31.1386C45.5003 30.2337 46.2339 29.5 47.1389 29.5C55.6421 29.5 62.5003 36.5356 62.5003 45C62.5003 45.8285 61.8287 46.5 61.0003 46.5C58.5149 46.5 56.4999 48.5149 56.4999 51.0001C56.4999 51.4002 56.34 51.7837 56.0559 52.0654C55.7717 52.347 55.3868 52.5035 54.9867 52.5L36.987 52.3416C36.1638 52.3343 35.5002 51.6649 35.5002 50.8416C35.5002 46.5891 33.6046 42.7616 30.6039 40.1273C30.1347 39.7153 29.9697 39.0557 30.1898 38.4713C30.4099 37.8869 30.9691 37.5 31.5935 37.5H45.5003V31.1386Z"
    [attr.fill]="fillColor" />
</svg>