<svg width="24" height="24" viewBox="0 0 24 24" fill="none" xmlns="http://www.w3.org/2000/svg">
<path d="M17.2 13.4C17.2 8.36 11.6 5 11.6 5C11.6 5 6 8.36 6 13.4C6 14.8852 6.59 16.3096 7.6402 17.3598C8.69041 18.41 10.1148 19 11.6 19C13.0852 19 14.5096 18.41 15.5598 17.3598C16.61 16.3096 17.2 14.8852 17.2 13.4Z" stroke="black" stroke-linecap="round" stroke-linejoin="round"/>
<path d="M8.79999 16.2C8.79999 16.9426 9.09499 17.6548 9.62009 18.1799C10.1452 18.705 10.8574 19 11.6 19C12.3426 19 13.0548 18.705 13.5799 18.1799C14.105 17.6548 14.4 16.9426 14.4 16.2C14.4 13.4 11.6 11.72 11.6 11.72C11.6 11.72 8.79999 13.4 8.79999 16.2Z" stroke="black" stroke-linecap="round" stroke-linejoin="round"/>
</svg>
