<svg width="20" height="20" viewBox="0 0 20 20" fill="none" xmlns="http://www.w3.org/2000/svg">
<path fill-rule="evenodd" clip-rule="evenodd" d="M10 1.75C5.44365 1.75 1.75 5.44365 1.75 10C1.75 14.5563 5.44365 18.25 10 18.25C14.5563 18.25 18.25 14.5563 18.25 10C18.25 5.44365 14.5563 1.75 10 1.75ZM0.25 10C0.25 4.61522 4.61522 0.25 10 0.25C15.3848 0.25 19.75 4.61522 19.75 10C19.75 15.3848 15.3848 19.75 10 19.75C4.61522 19.75 0.25 15.3848 0.25 10ZM8.5 9.25C8.5 8.83579 8.83579 8.5 9.25 8.5H10C10.4142 8.5 10.75 8.83579 10.75 9.25V13.75C11.1642 13.75 11.5 14.0858 11.5 14.5C11.5 14.9142 11.1642 15.25 10.75 15.25H10C9.58579 15.25 9.25 14.9142 9.25 14.5V10C8.83579 10 8.5 9.66421 8.5 9.25ZM11.125 5.875C11.125 6.49632 10.6213 7 10 7C9.37868 7 8.875 6.49632 8.875 5.875C8.875 5.25368 9.37868 4.75 10 4.75C10.6213 4.75 11.125 5.25368 11.125 5.875Z" fill="#F07600"/>
</svg>
