<svg width="16" height="21" viewBox="0 0 16 21" fill="none" xmlns="http://www.w3.org/2000/svg">
<path d="M7.2806 19.7901L6.66323 20.2159L6.66394 20.2169L7.2806 19.7901ZM4.83905 16.2881L5.45291 15.8572L4.83905 16.2881ZM8.7194 19.7901L9.33606 20.2169L9.33676 20.2159L8.7194 19.7901ZM11.1609 16.2881L10.5471 15.8572L11.1609 16.2881ZM7.89797 19.3642C6.95127 17.9918 6.14214 16.8391 5.45291 15.8572L4.22519 16.719C4.91441 17.7009 5.72039 18.8491 6.66324 20.2159L7.89797 19.3642ZM8.10273 19.3632C8.05335 19.4345 7.94664 19.4345 7.89727 19.3632L6.66394 20.2169C7.30975 21.1499 8.69018 21.15 9.33606 20.2169L8.10273 19.3632ZM10.5471 15.8572C9.85786 16.8391 9.04873 17.9918 8.10203 19.3642L9.33676 20.2159C10.2796 18.8491 11.0856 17.7009 11.7748 16.719L10.5471 15.8572ZM14.25 8.5C14.25 9.5521 14.1073 10.2486 13.6046 11.2237C13.0712 12.2583 12.1499 13.5739 10.5471 15.8572L11.7748 16.719C13.3473 14.4789 14.3455 13.0599 14.9378 11.9111C15.5608 10.7027 15.75 9.76688 15.75 8.5H14.25ZM8 2.25C11.4518 2.25 14.25 5.04821 14.25 8.5H15.75C15.75 4.21978 12.2802 0.75 8 0.75V2.25ZM1.75 8.5C1.75 5.04821 4.54821 2.25 8 2.25V0.75C3.71978 0.75 0.25 4.21978 0.25 8.5H1.75ZM5.45291 15.8572C3.85013 13.5739 2.92883 12.2583 2.39543 11.2237C1.89269 10.2486 1.75 9.5521 1.75 8.5H0.25C0.25 9.76688 0.439222 10.7027 1.0622 11.9111C1.65452 13.0599 2.65275 14.4789 4.22519 16.719L5.45291 15.8572ZM8 12.1667C10.0251 12.1667 11.6667 10.5251 11.6667 8.5H10.1667C10.1667 9.69663 9.19663 10.6667 8 10.6667V12.1667ZM4.33333 8.5C4.33333 10.5251 5.97495 12.1667 8 12.1667V10.6667C6.80338 10.6667 5.83333 9.69663 5.83333 8.5H4.33333ZM8 4.83333C5.97495 4.83333 4.33333 6.47495 4.33333 8.5H5.83333C5.83333 7.30338 6.80338 6.33333 8 6.33333V4.83333ZM11.6667 8.5C11.6667 6.47495 10.0251 4.83333 8 4.83333V6.33333C9.19663 6.33333 10.1667 7.30338 10.1667 8.5H11.6667Z" fill="#F07600"/>
</svg>
