<svg width="76" height="70" viewBox="0 0 76 70" fill="none" xmlns="http://www.w3.org/2000/svg">
<path d="M8 39.3455V64.9999C8 65.7955 8.31607 66.5586 8.87868 67.1212C9.44129 67.6838 10.2044 67.9999 11 67.9999H65C65.7956 67.9999 66.5587 67.6838 67.1213 67.1212C67.6839 66.5586 68 65.7955 68 64.9999V39.346" stroke="#BDBDBD" stroke-width="4" stroke-linecap="round" stroke-linejoin="round"/>
<path d="M10.2629 2H65.7371C66.389 2 67.0232 2.21237 67.5437 2.60495C68.0642 2.99754 68.4426 3.54899 68.6217 4.17584L74 23H2L7.37833 4.17584C7.55743 3.54899 7.93585 2.99754 8.45632 2.60495C8.97679 2.21237 9.61097 2 10.2629 2Z" stroke="#BDBDBD" stroke-width="4" stroke-linecap="round" stroke-linejoin="round"/>
<path d="M26 23V29C26 32.1826 24.7357 35.2348 22.4853 37.4853C20.2348 39.7357 17.1826 41 14 41C10.8174 41 7.76515 39.7357 5.51472 37.4853C3.26428 35.2348 2 32.1826 2 29V23" stroke="#BDBDBD" stroke-width="4" stroke-linecap="round" stroke-linejoin="round"/>
<path d="M50 23V29C50 32.1826 48.7357 35.2348 46.4853 37.4853C44.2348 39.7357 41.1826 41 38 41C34.8174 41 31.7652 39.7357 29.5147 37.4853C27.2643 35.2348 26 32.1826 26 29V23" stroke="#BDBDBD" stroke-width="4" stroke-linecap="round" stroke-linejoin="round"/>
<path d="M74 23V29C74 32.1826 72.7357 35.2348 70.4853 37.4853C68.2348 39.7357 65.1826 41 62 41C58.8174 41 55.7652 39.7357 53.5147 37.4853C51.2643 35.2348 50 32.1826 50 29V23" stroke="#BDBDBD" stroke-width="4" stroke-linecap="round" stroke-linejoin="round"/>
</svg>
