<svg width="24" height="24" viewBox="0 0 24 24" fill="none" xmlns="http://www.w3.org/2000/svg">
<path d="M4.62099 11.0869H8.3513V19H4.62099C4.4561 19 4.29796 18.9358 4.18136 18.8217C4.06477 18.7075 3.99927 18.5527 3.99927 18.3913V11.6956C3.99927 11.5342 4.06477 11.3793 4.18136 11.2652C4.29796 11.151 4.4561 11.0869 4.62099 11.0869V11.0869Z" stroke="black" stroke-linecap="round" stroke-linejoin="round"/>
<path d="M8.35168 11.087L11.4603 5C11.7869 5 12.1102 5.06298 12.412 5.18534C12.7137 5.3077 12.9878 5.48704 13.2188 5.71313C13.4497 5.93922 13.6329 6.20763 13.7578 6.50303C13.8828 6.79843 13.9471 7.11504 13.9471 7.43478V9.26087H18.7558C18.9321 9.26087 19.1064 9.29758 19.2671 9.36856C19.4278 9.43954 19.5713 9.54318 19.688 9.67259C19.8046 9.80199 19.8919 9.95422 19.9439 10.1192C19.9959 10.2841 20.0115 10.458 19.9896 10.6293L19.057 17.9336C19.0195 18.228 18.8733 18.4989 18.6461 18.6953C18.4189 18.8916 18.1263 19 17.8232 19H8.35168" stroke="black" stroke-linecap="round" stroke-linejoin="round"/>
</svg>
