<svg width="24" height="24" viewBox="0 0 24 24" fill="none" xmlns="http://www.w3.org/2000/svg">
<circle cx="12" cy="12" r="12" fill="white"/>
<path fill-rule="evenodd" clip-rule="evenodd" d="M15.5842 14.5015L18.9036 17.8209C19.0321 17.9494 19.0321 18.1572 18.9036 18.2857L18.2857 18.9036C18.1572 19.0321 17.9494 19.0321 17.8209 18.9036L14.5015 15.5842C14.4413 15.5214 14.4058 15.4393 14.4058 15.3518V14.9909C13.4078 15.8522 12.109 16.3744 10.6872 16.3744C7.54558 16.3744 5 13.8289 5 10.6872C5 7.54558 7.54558 5 10.6872 5C13.8289 5 16.3744 7.54558 16.3744 10.6872C16.3744 12.109 15.8522 13.4078 14.9909 14.4058H15.3518C15.4393 14.4058 15.5214 14.4386 15.5842 14.5015ZM6.31244 10.6872C6.31244 13.1043 8.27015 15.062 10.6872 15.062C13.1043 15.062 15.062 13.1043 15.062 10.6872C15.062 8.27015 13.1043 6.31244 10.6872 6.31244C8.27015 6.31244 6.31244 8.27015 6.31244 10.6872Z" fill="#F07600"/>
</svg>
