<svg width="24" height="24" viewBox="0 0 24 24" fill="none" xmlns="http://www.w3.org/2000/svg">
<circle cx="12" cy="12" r="12" fill="white"/>
<path d="M7.15387 14.1537C8.34342 14.1537 9.30774 13.1894 9.30774 11.9998C9.30774 10.8103 8.34342 9.84595 7.15387 9.84595C5.96432 9.84595 5 10.8103 5 11.9998C5 13.1894 5.96432 14.1537 7.15387 14.1537Z" stroke="#F07600" stroke-width="2" stroke-linecap="round" stroke-linejoin="round"/>
<path d="M14.6924 19.0001C15.882 19.0001 16.8463 18.0358 16.8463 16.8463C16.8463 15.6567 15.882 14.6924 14.6924 14.6924C13.5029 14.6924 12.5386 15.6567 12.5386 16.8463C12.5386 18.0358 13.5029 19.0001 14.6924 19.0001Z" stroke="#F07600" stroke-width="2" stroke-linecap="round" stroke-linejoin="round"/>
<path d="M14.6924 9.30774C15.882 9.30774 16.8463 8.34342 16.8463 7.15387C16.8463 5.96432 15.882 5 14.6924 5C13.5029 5 12.5386 5.96432 12.5386 7.15387C12.5386 8.34342 13.5029 9.30774 14.6924 9.30774Z" stroke="#F07600" stroke-width="2" stroke-linecap="round" stroke-linejoin="round"/>
<path d="M12.881 8.31836L8.96558 10.8354" stroke="#F07600" stroke-width="2" stroke-linecap="round" stroke-linejoin="round"/>
<path d="M8.96558 13.1643L12.881 15.6814" stroke="#F07600" stroke-width="2" stroke-linecap="round" stroke-linejoin="round"/>
</svg>
