<svg width="24" height="24" viewBox="0 0 24 24" fill="none" xmlns="http://www.w3.org/2000/svg">
<path fill-rule="evenodd" clip-rule="evenodd" d="M20.2728 7.0031C20.0374 7.38603 19.7591 7.73699 19.4357 8.01548C19.3218 8.11357 19.2045 8.20046 19.0838 8.275C20.233 9.76313 19.7904 11.3507 18.4144 12.7266C15.3696 15.7714 9.06944 18.1697 3.5078 17.1493C3.49395 17.147 3.48028 17.1439 3.46685 17.1402C3.39288 17.12 3.32868 17.08 3.27896 17.0272C3.24838 16.9949 3.22284 16.9572 3.20398 16.9151C3.18147 16.8651 3.16888 16.8103 3.16825 16.7534C3.16688 16.6501 3.2053 16.5517 3.27221 16.477C3.31623 16.4279 3.37259 16.389 3.43807 16.3658C3.45285 16.3605 3.46799 16.356 3.4834 16.3525C7.90963 15.2502 9.63749 13.8617 11.8976 10.5824C12.2144 10.1227 12.2896 10.0143 12.4382 9.80572C12.9294 9.11619 13.3454 8.60272 13.818 8.13012C15.2688 6.67929 16.9549 6.26615 18.5116 7.66264C18.6433 7.60041 18.775 7.51215 18.9055 7.39975C19.1568 7.18338 19.3855 6.89495 19.5805 6.57758C19.6746 6.42454 19.7386 6.30252 19.7691 6.23626C19.8631 6.0325 20.1044 5.94348 20.3082 6.03743C20.512 6.13137 20.601 6.37272 20.507 6.57648C20.4638 6.67028 20.3851 6.82029 20.2728 7.0031ZM17.8399 12.152C15.3323 14.6596 10.3988 16.7326 5.66985 16.5657C8.92253 15.4644 10.5732 13.9358 12.5666 11.0435C12.8807 10.5878 12.9549 10.4809 13.1 10.2772C13.5673 9.62127 13.9568 9.14045 14.3925 8.70467C15.6232 7.47404 16.9001 7.19378 18.1231 8.41336L18.1271 8.41744C19.3514 9.64167 19.0718 10.9201 17.8399 12.152Z" fill="black" stroke="black" stroke-width="0.25"/>
</svg>
