<svg width="16" height="16" viewBox="0 0 16 16" fill="none" xmlns="http://www.w3.org/2000/svg">
<path d="M8 8H7.25C7.25 8.19891 7.32902 8.38968 7.46967 8.53033L8 8ZM8 14.25C4.54822 14.25 1.75 11.4518 1.75 8H0.25C0.25 12.2802 3.71979 15.75 8 15.75V14.25ZM14.25 8C14.25 11.4518 11.4518 14.25 8 14.25V15.75C12.2802 15.75 15.75 12.2802 15.75 8H14.25ZM8 1.75C11.4518 1.75 14.25 4.54822 14.25 8H15.75C15.75 3.71979 12.2802 0.25 8 0.25V1.75ZM8 0.25C3.71979 0.25 0.25 3.71979 0.25 8H1.75C1.75 4.54822 4.54822 1.75 8 1.75V0.25ZM7.25 3.5V8H8.75V3.5H7.25ZM7.46967 8.53033L10.4697 11.5303L11.5303 10.4697L8.53033 7.46967L7.46967 8.53033Z" fill="black" fill-opacity="0.4"/>
</svg>
