<svg width="24" height="24" viewBox="0 0 24 24" fill="none" xmlns="http://www.w3.org/2000/svg">
<circle cx="12" cy="12" r="9" fill="#C4C4C4"/>
<path fill-rule="evenodd" clip-rule="evenodd" d="M14.9742 8.17597C15.2089 7.94131 15.5893 7.94131 15.824 8.17597C16.0586 8.41063 16.0586 8.79109 15.824 9.02575L12.8498 12L15.824 14.9742C16.0587 15.2089 16.0587 15.5893 15.824 15.824C15.5894 16.0586 15.2089 16.0586 14.9743 15.824L12 12.8497L9.02575 15.824C8.79109 16.0586 8.41063 16.0586 8.17597 15.824C7.94131 15.5893 7.94131 15.2089 8.17597 14.9742L11.1502 12L8.17602 9.02575C7.94136 8.79109 7.94136 8.41063 8.17602 8.17597C8.41068 7.94131 8.79114 7.94131 9.0258 8.17597L12 11.1502L14.9742 8.17597Z" fill="white"/>
</svg>
