<svg [attr.width]="width" [attr.height]="height" viewBox="0 0 24 24" fill="none" xmlns="http://www.w3.org/2000/svg">
  <path
    d="M5.10571 18.8943C4.24283 18.0314 4.81514 16.2198 4.37595 15.1584C3.92066 14.058 2.25 13.1723 2.25 12C2.25 10.8276 3.92067 9.942 4.37595 8.84164C4.81515 7.78015 4.24283 5.96858 5.10571 5.10571C5.96858 4.24283 7.78016 4.81514 8.84165 4.37595C9.94203 3.92066 10.8277 2.25 12 2.25C13.1724 2.25 14.058 3.92067 15.1584 4.37595C16.2199 4.81515 18.0314 4.24283 18.8943 5.10571C19.7572 5.96858 19.1849 7.78016 19.6241 8.84165C20.0793 9.94203 21.75 10.8277 21.75 12C21.75 13.1724 20.0793 14.058 19.624 15.1584C19.1848 16.2199 19.7572 18.0314 18.8943 18.8943C18.0314 19.7572 16.2198 19.1849 15.1584 19.6241C14.058 20.0793 13.1723 21.75 12 21.75C10.8276 21.75 9.942 20.0793 8.84164 19.624C7.78015 19.1848 5.96858 19.7572 5.10571 18.8943Z"
    [attr.stroke]="fillColor" stroke-width="2" stroke-linecap="round" stroke-linejoin="round" />
  <path
    d="M12 18C12.6213 18 13.125 17.4963 13.125 16.875C13.125 16.2537 12.6213 15.75 12 15.75C11.3787 15.75 10.875 16.2537 10.875 16.875C10.875 17.4963 11.3787 18 12 18Z"
    [attr.fill]="fillColor" />
  <path
    d="M11.9999 13.5005V12.7505C12.5191 12.7505 13.0266 12.5965 13.4583 12.3081C13.89 12.0197 14.2264 11.6097 14.4251 11.13C14.6238 10.6504 14.6758 10.1226 14.5745 9.61338C14.4732 9.10418 14.2232 8.63645 13.8561 8.26933C13.489 7.90222 13.0213 7.65221 12.5121 7.55093C12.0029 7.44964 11.4751 7.50163 10.9954 7.70031C10.5157 7.89899 10.1058 8.23544 9.81733 8.66712C9.52889 9.0988 9.37494 9.60631 9.37494 10.1255"
    [attr.stroke]="fillColor" stroke-width="2" stroke-linecap="round" stroke-linejoin="round" />
</svg>