<svg width="14" height="14" viewBox="0 0 14 14" fill="none" xmlns="http://www.w3.org/2000/svg">
  <path fill-rule="evenodd" clip-rule="evenodd"
    d="M2.05025 0.636155C1.65972 0.245631 1.02656 0.245631 0.636033 0.636155C0.245509 1.02668 0.245509 1.65984 0.636033 2.05037L5.58578 7.00012L0.636033 11.9499C0.245509 12.3404 0.245509 12.9736 0.636033 13.3641C1.02656 13.7546 1.65972 13.7546 2.05025 13.3641L6.99999 8.41433L11.9497 13.3641C12.3403 13.7546 12.9734 13.7546 13.364 13.3641C13.7545 12.9736 13.7545 12.3404 13.364 11.9499L8.41421 7.00012L13.364 2.05037C13.7545 1.65984 13.7545 1.02668 13.364 0.636155C12.9734 0.245631 12.3403 0.245631 11.9497 0.636155L6.99999 5.5859L2.05025 0.636155Z"
    [attr.fill]="fillColor" />
</svg>