<svg [attr.width]="width" [attr.height]="height" viewBox="0 0 24 24" fill="none" xmlns="http://www.w3.org/2000/svg">
  <path
    d="M12.6729 17.3386L16.7077 19.8949C17.2235 20.2217 17.8638 19.7357 17.7108 19.1337L16.545 14.5479C16.5122 14.4201 16.5161 14.2857 16.5562 14.1601C16.5964 14.0345 16.6712 13.9228 16.772 13.8378L20.3902 10.8263C20.8656 10.4306 20.6203 9.64161 20.0094 9.60197L15.2843 9.29531C15.1571 9.28622 15.035 9.24116 14.9323 9.16538C14.8297 9.0896 14.7507 8.98621 14.7045 8.86726L12.9422 4.42942C12.8943 4.30317 12.8092 4.19448 12.698 4.11778C12.5869 4.04108 12.455 4 12.32 4C12.185 4 12.0531 4.04108 11.942 4.11778C11.8309 4.19448 11.7457 4.30317 11.6978 4.42942L9.93551 8.86726C9.88934 8.98621 9.81032 9.0896 9.70767 9.16538C9.60502 9.24116 9.48295 9.28622 9.35568 9.29531L4.63056 9.60197C4.01976 9.64161 3.77438 10.4306 4.24979 10.8263L7.86798 13.8378C7.96881 13.9228 8.0436 14.0345 8.08376 14.1601C8.12392 14.2857 8.12781 14.4201 8.09498 14.5479L7.01388 18.8007C6.83022 19.5231 7.59864 20.1063 8.21754 19.7142L11.9671 17.3386C12.0726 17.2715 12.195 17.2358 12.32 17.2358C12.445 17.2358 12.5674 17.2715 12.6729 17.3386V17.3386Z"
    [attr.fill]="fillColor" stroke="#F07600" stroke-width="1.5" stroke-linecap="round" stroke-linejoin="round" />
</svg>