<svg width="16" height="16" viewBox="0 0 16 16" fill="none" xmlns="http://www.w3.org/2000/svg">
  <path
    d="M8 1L8.48809 0.430558C8.20723 0.189814 7.79277 0.189814 7.51191 0.430558L8 1ZM1 7L0.511906 6.43056L0.25 6.65505V7H1ZM6 15V15.75C6.41421 15.75 6.75 15.4142 6.75 15H6ZM10 15H9.25C9.25 15.4142 9.58579 15.75 10 15.75V15ZM15 7H15.75V6.65505L15.4881 6.43056L15 7ZM2 15.75H6V14.25H2V15.75ZM15.4881 6.43056L8.48809 0.430558L7.51191 1.56944L14.5119 7.56944L15.4881 6.43056ZM7.51191 0.430558L0.511906 6.43056L1.48809 7.56944L8.48809 1.56944L7.51191 0.430558ZM6.75 15V12H5.25V15H6.75ZM9.25 12V15H10.75V12H9.25ZM10 15.75H14V14.25H10V15.75ZM15.75 14V7H14.25V14H15.75ZM0.25 7V14H1.75V7H0.25ZM8 10.75C8.69036 10.75 9.25 11.3096 9.25 12H10.75C10.75 10.4812 9.51878 9.25 8 9.25V10.75ZM8 9.25C6.48122 9.25 5.25 10.4812 5.25 12H6.75C6.75 11.3096 7.30964 10.75 8 10.75V9.25ZM14 15.75C14.9665 15.75 15.75 14.9665 15.75 14H14.25C14.25 14.1381 14.1381 14.25 14 14.25V15.75ZM2 14.25C1.86193 14.25 1.75 14.1381 1.75 14H0.25C0.25 14.9665 1.0335 15.75 2 15.75V14.25Z"
    [attr.fill]="fillColor" />
</svg>