<svg width="24" height="24" viewBox="0 0 24 24" fill="none" xmlns="http://www.w3.org/2000/svg">
  <rect width="24" height="24" rx="12" [attr.fill]="fillColor" />
  <path fill-rule="evenodd" clip-rule="evenodd"
    d="M12.375 6.375C12.375 6.16789 12.2071 6 12 6C11.7929 6 11.625 6.16789 11.625 6.375V11.625H6.375C6.16789 11.625 6 11.7929 6 12C6 12.2071 6.16789 12.375 6.375 12.375H11.625V17.625C11.625 17.8321 11.7929 18 12 18C12.2071 18 12.375 17.8321 12.375 17.625V12.375H17.625C17.8321 12.375 18 12.2071 18 12C18 11.7929 17.8321 11.625 17.625 11.625H12.375V6.375Z"
    fill="white" />
  <path
    d="M11.625 11.625V12.125H12.125V11.625H11.625ZM11.625 12.375H12.125V11.875H11.625V12.375ZM12.375 12.375V11.875H11.875V12.375H12.375ZM12.375 11.625H11.875V12.125H12.375V11.625ZM12 6.5C11.931 6.5 11.875 6.44404 11.875 6.375H12.875C12.875 5.89175 12.4832 5.5 12 5.5V6.5ZM12.125 6.375C12.125 6.44404 12.069 6.5 12 6.5V5.5C11.5168 5.5 11.125 5.89175 11.125 6.375H12.125ZM12.125 11.625V6.375H11.125V11.625H12.125ZM6.375 12.125H11.625V11.125H6.375V12.125ZM6.5 12C6.5 12.069 6.44404 12.125 6.375 12.125V11.125C5.89175 11.125 5.5 11.5168 5.5 12H6.5ZM6.375 11.875C6.44404 11.875 6.5 11.931 6.5 12H5.5C5.5 12.4832 5.89175 12.875 6.375 12.875V11.875ZM11.625 11.875H6.375V12.875H11.625V11.875ZM12.125 17.625V12.375H11.125V17.625H12.125ZM12 17.5C12.069 17.5 12.125 17.556 12.125 17.625H11.125C11.125 18.1082 11.5168 18.5 12 18.5V17.5ZM11.875 17.625C11.875 17.556 11.931 17.5 12 17.5V18.5C12.4832 18.5 12.875 18.1082 12.875 17.625H11.875ZM11.875 12.375V17.625H12.875V12.375H11.875ZM17.625 11.875H12.375V12.875H17.625V11.875ZM17.5 12C17.5 11.931 17.556 11.875 17.625 11.875V12.875C18.1082 12.875 18.5 12.4832 18.5 12H17.5ZM17.625 12.125C17.556 12.125 17.5 12.069 17.5 12H18.5C18.5 11.5168 18.1082 11.125 17.625 11.125V12.125ZM12.375 12.125H17.625V11.125H12.375V12.125ZM11.875 6.375V11.625H12.875V6.375H11.875Z"
    fill="white" />
</svg>