<svg width="14" height="14" viewBox="0 0 14 14" fill="none" xmlns="http://www.w3.org/2000/svg">
  <path fill-rule="evenodd" clip-rule="evenodd"
    d="M10.5842 9.50149L13.9036 12.8209C14.0321 12.9494 14.0321 13.1572 13.9036 13.2857L13.2857 13.9036C13.1572 14.0321 12.9494 14.0321 12.8209 13.9036L9.50149 10.5842C9.44134 10.5214 9.40579 10.4393 9.40579 10.3518V9.99092C8.40779 10.8522 7.10903 11.3744 5.68722 11.3744C2.54558 11.3744 0 8.82887 0 5.68722C0 2.54558 2.54558 0 5.68722 0C8.82887 0 11.3744 2.54558 11.3744 5.68722C11.3744 7.10903 10.8522 8.40779 9.99092 9.40579H10.3518C10.4393 9.40579 10.5214 9.4386 10.5842 9.50149ZM1.31244 5.68722C1.31244 8.10429 3.27015 10.062 5.68722 10.062C8.10429 10.062 10.062 8.10429 10.062 5.68722C10.062 3.27015 8.10429 1.31244 5.68722 1.31244C3.27015 1.31244 1.31244 3.27015 1.31244 5.68722Z"
    [attr.fill]="fillColor" />
</svg>